<svg width="1920" height="1080" viewBox="0 0 1920 1080" fill="none" xmlns="http://www.w3.org/2000/svg">
<g clip-path="url(#clip0_1_9)">
<rect width="1920" height="1080" fill="#121212"/>
<rect x="1011" y="290" width="60" height="802" fill="#FF6464"/>
<rect x="1071" y="290" width="60" height="802" fill="#FF9C64"/>
<rect x="1131" y="290" width="60" height="802" fill="#FFF496"/>
<rect x="1191" y="290" width="60" height="802" fill="#8BFF9E"/>
<rect x="1251" y="290" width="60" height="802" fill="#56B8FF"/>
<rect x="1311" y="290" width="60" height="802" fill="#A056FF"/>
<rect x="1011" y="290" width="60" height="802" fill="#1B1B1B" fill-opacity="0.29"/>
<rect x="1071" y="290" width="60" height="802" fill="#1B1B1B" fill-opacity="0.29"/>
<rect x="1131" y="290" width="60" height="802" fill="#1B1B1B" fill-opacity="0.29"/>
<rect x="1191" y="290" width="60" height="802" fill="#1B1B1B" fill-opacity="0.29"/>
<rect x="1251" y="290" width="60" height="802" fill="#1B1B1B" fill-opacity="0.29"/>
<rect x="1311" y="290" width="60" height="802" fill="#1B1B1B" fill-opacity="0.29"/>
<path d="M1011 474L1371 290L1011 419V474Z" fill="black" fill-opacity="0.16"/>
<rect x="548" y="456" width="60" height="644" fill="#FF6464"/>
<rect x="608" y="456" width="60" height="644" fill="#FF9C64"/>
<rect x="668" y="456" width="60" height="644" fill="#FFF496"/>
<rect x="728" y="456" width="60" height="644" fill="#8BFF9E"/>
<rect x="788" y="456" width="60" height="644" fill="#56B8FF"/>
<rect x="848" y="456" width="60" height="644" fill="#A056FF"/>
<path d="M1010.5 290H1070.5L608 456H548L1010.5 290Z" fill="#FF6464"/>
<path d="M1070.5 290H1130.5L668 456H608L1070.5 290Z" fill="#FF9C64"/>
<path d="M1130.5 290H1190.5L728 456H668L1130.5 290Z" fill="#FFF496"/>
<path d="M1190.5 290H1250.5L788 456H728L1190.5 290Z" fill="#8BFF9E"/>
<path d="M1250.5 290H1310.5L848 456H788L1250.5 290Z" fill="#56B8FF"/>
<path d="M1310.5 290H1370.5L908 456H848L1310.5 290Z" fill="#A056FF"/>
<path d="M1010.5 290H1070.5L608 456H548L1010.5 290Z" fill="white" fill-opacity="0.31"/>
<path d="M1070.5 290H1130.5L668 456H608L1070.5 290Z" fill="white" fill-opacity="0.31"/>
<path d="M1130.5 290H1190.5L728 456H668L1130.5 290Z" fill="white" fill-opacity="0.31"/>
<path d="M1190.5 290H1250.5L788 456H728L1190.5 290Z" fill="white" fill-opacity="0.31"/>
<path d="M1250.5 290H1310.5L848 456H788L1250.5 290Z" fill="white" fill-opacity="0.31"/>
<path d="M1310.5 290H1370.5L908 456H848L1310.5 290Z" fill="white" fill-opacity="0.31"/>
</g>
<defs>
<clipPath id="clip0_1_9">
<rect width="1920" height="1080" fill="white"/>
</clipPath>
</defs>
</svg>
