<svg width="1920" height="1080" viewBox="0 0 1920 1080" fill="none" xmlns="http://www.w3.org/2000/svg">
<g clip-path="url(#clip0_4_105)">
<rect width="1920" height="1080" fill="#121212"/>
<path d="M316 144H376L-300.5 1080H-360.5L316 144Z" fill="#FF6464"/>
<path d="M376 144H436L-240.5 1080H-300.5L376 144Z" fill="#FF9C64"/>
<path d="M436 144H496L-180.5 1080H-240.5L436 144Z" fill="#FFF496"/>
<path d="M496 144H556L-120.5 1080H-180.5L496 144Z" fill="#8BFF9E"/>
<path d="M556 144H616L-60.5 1080H-120.5L556 144Z" fill="#56B8FF"/>
<path d="M616 144H676L-0.5 1080H-60.5L616 144Z" fill="#A056FF"/>
<path d="M316 144H376L-300.5 1080H-360.5L316 144Z" fill="black" fill-opacity="0.25"/>
<path d="M376 144H436L-240.5 1080H-300.5L376 144Z" fill="black" fill-opacity="0.25"/>
<path d="M436 144H496L-180.5 1080H-240.5L436 144Z" fill="black" fill-opacity="0.25"/>
<path d="M496 144H556L-120.5 1080H-180.5L496 144Z" fill="black" fill-opacity="0.25"/>
<path d="M556 144H616L-60.5 1080H-120.5L556 144Z" fill="black" fill-opacity="0.25"/>
<path d="M616 144H676L-0.5 1080H-60.5L616 144Z" fill="black" fill-opacity="0.25"/>
<path d="M676 144H316L324 631L676 144Z" fill="black" fill-opacity="0.25"/>
<path d="M316 144H376L676 896H616L316 144Z" fill="#FF6464"/>
<path d="M376 144H436L736 896H676L376 144Z" fill="#FF9C64"/>
<path d="M436 144H496L796 896H736L436 144Z" fill="#FFF496"/>
<path d="M496 144H556L856 896H796L496 144Z" fill="#8BFF9E"/>
<path d="M556 144H616L916 896H856L556 144Z" fill="#56B8FF"/>
<path d="M616 144H676L976 896H916L616 144Z" fill="#A056FF"/>
<path d="M962 486H1022L676 896H616L962 486Z" fill="#FF6464"/>
<path d="M1022 486H1082L736 896H676L1022 486Z" fill="#FF9C64"/>
<path d="M1082 486H1142L796 896H736L1082 486Z" fill="#FFF496"/>
<path d="M1142 486H1202L856 896H796L1142 486Z" fill="#8BFF9E"/>
<path d="M1202 486H1262L916 896H856L1202 486Z" fill="#56B8FF"/>
<path d="M1262 486H1322L976 896H916L1262 486Z" fill="#A056FF"/>
<path d="M962 486H1022L676 896H616L962 486Z" fill="black" fill-opacity="0.25"/>
<path d="M1022 486H1082L736 896H676L1022 486Z" fill="black" fill-opacity="0.25"/>
<path d="M1082 486H1142L796 896H736L1082 486Z" fill="black" fill-opacity="0.25"/>
<path d="M1142 486H1202L856 896H796L1142 486Z" fill="black" fill-opacity="0.25"/>
<path d="M1202 486H1262L916 896H856L1202 486Z" fill="black" fill-opacity="0.25"/>
<path d="M1262 486H1322L976 896H916L1262 486Z" fill="black" fill-opacity="0.25"/>
<path d="M1322 486H962L976 896L1322 486Z" fill="black" fill-opacity="0.25"/>
<path d="M962 486H1022L1322 1140H1262L962 486Z" fill="#FF6464"/>
<path d="M1022 486H1082L1382 1140H1322L1022 486Z" fill="#FF9C64"/>
<path d="M1082 486H1142L1442 1140H1382L1082 486Z" fill="#FFF496"/>
<path d="M1142 486H1202L1502 1140H1442L1142 486Z" fill="#8BFF9E"/>
<path d="M1202 486H1262L1562 1140H1502L1202 486Z" fill="#56B8FF"/>
<path d="M1262 486H1322L1622 1140H1562L1262 486Z" fill="#A056FF"/>
</g>
<defs>
<clipPath id="clip0_4_105">
<rect width="1920" height="1080" fill="white"/>
</clipPath>
</defs>
</svg>
