<svg width="1920" height="1080" viewBox="0 0 1920 1080" fill="none" xmlns="http://www.w3.org/2000/svg">
<g clip-path="url(#clip0_25_49)">
<rect width="1920" height="1080" fill="#121212"/>
<path d="M1024.5 720L1001.5 705L999 700V699H997H991L974 697L971.5 696.5L969 696H962L953 696.5L950 697L933 700L929 700.5H926L925 702L898 715.5L813 690L815 660H1928V720H1024.5Z" fill="#FF6464"/>
<path d="M815 660L814 639L821.5 629L831 625L836 623L839 621.25L842.5 617.375L845 613.5L848 609.625L850 607.688L851 606.719L851.5 605.75L851 598L1928 600V660H815Z" fill="#FF9C64"/>
<path d="M851 598L852 583.5L855.5 569L861.5 554L869 540H1928V600L851 598Z" fill="#FFF496"/>
<path d="M869 540L878.5 525L889 510L895 502.5L898 499L900.5 495L904.5 487.5L907.5 480H1928V540H869Z" fill="#8BFF9E"/>
<path d="M907.5 480L910 472.5L911.5 465L912.5 457.5V450L911.5 433L911 420H1928V480H907.5Z" fill="#56B8FF"/>
<path d="M911 420L912.5 404L916 390L920 382L925 375L929.5 371L934 368L949 362L966.875 360H1928V420H911Z" fill="#A056FF"/>
<g filter="url(#filter0_b_25_49)">
<path d="M1097.34 644.01C1097.34 644.006 1097.33 644.001 1097.33 643.998C1094.79 641.123 1093.58 635.793 1092.27 630.115C1090.97 624.441 1089.52 618.322 1084.86 614.356C1084.85 614.347 1084.84 614.339 1084.83 614.33C1083.91 613.525 1082.96 612.845 1082.01 612.278C1081.06 611.712 1080.09 611.25 1079.12 610.885C1085.59 591.681 1083.05 572.557 1076.52 555.278C1068.51 534.068 1054.52 515.59 1043.83 502.949C1031.87 487.845 1020.17 473.509 1020.4 452.333C1020.75 420.013 1023.95 360.08 967.125 360C964.815 359.996 962.404 360.092 959.893 360.294C896.394 365.41 913.238 432.558 912.294 455.039C911.133 471.482 907.803 484.442 896.503 500.515C883.233 516.312 864.541 541.883 855.689 568.503C851.513 581.063 849.526 593.867 851.358 605.987C850.783 606.504 850.238 607.045 849.714 607.599C845.819 611.767 842.938 616.811 839.731 620.206C836.733 623.203 832.464 624.34 827.768 626.023C823.072 627.71 817.919 630.194 814.791 636.204C814.791 636.204 814.791 636.209 814.787 636.209C814.783 636.217 814.779 636.23 814.77 636.237C813.298 638.986 812.82 641.953 812.82 644.962C812.82 647.745 813.231 650.566 813.646 653.28C814.51 658.929 815.387 664.271 814.225 667.889C810.51 678.058 810.032 685.088 812.649 690.191C815.273 695.303 820.661 697.556 826.754 698.832C838.938 701.375 855.438 700.746 868.44 707.645L869.56 705.534L868.453 707.65C882.373 714.935 896.487 717.521 907.745 714.948C915.913 713.085 922.538 708.217 925.942 700.729C934.747 700.687 944.412 696.952 959.893 696.101C970.396 695.252 983.516 699.835 998.606 698.996C999 700.633 999.571 702.211 1000.35 703.709C1000.36 703.721 1000.37 703.738 1000.38 703.751C1006.22 715.46 1017.09 720.815 1028.68 719.9C1040.28 718.985 1052.61 712.14 1062.58 700.268L1060.75 698.732L1062.59 700.251C1072.09 688.718 1087.86 683.938 1098.32 677.626C1103.55 674.47 1107.79 670.517 1108.12 664.776C1108.45 659.039 1105.08 652.609 1097.34 644.01Z" fill="#1E1E1E" fill-opacity="0.5"/>
<path d="M1103.35 664.503C1103.15 668.045 1100.59 670.676 1095.85 673.53C1086.39 679.242 1069.63 684.211 1058.92 697.191C1049.62 708.267 1038.28 714.348 1028.3 715.137C1018.32 715.926 1009.7 711.779 1004.62 701.577L1004.61 701.556L1004.6 701.53C1001.45 695.529 1002.76 686.065 1005.42 676.078C1008.07 666.094 1011.88 655.837 1012.4 647.506V647.481C1012.93 636.804 1013.53 627.479 1015.32 620.281C1017.12 613.084 1019.94 608.216 1024.94 605.475C1025.17 605.349 1025.4 605.228 1025.63 605.114C1026.2 614.36 1030.77 623.795 1038.86 625.834C1047.71 628.168 1060.46 620.571 1065.84 614.372C1066.92 614.33 1067.97 614.276 1068.98 614.251C1073.71 614.137 1077.67 614.41 1081.72 617.952L1081.73 617.964L1081.74 617.973C1084.85 620.613 1086.33 625.599 1087.62 631.18C1088.9 636.767 1089.92 642.847 1093.77 647.183L1093.78 647.187L1093.78 647.196C1101.18 655.409 1103.56 660.957 1103.35 664.503Z" fill="white" fill-opacity="0.6"/>
<path d="M923.577 690.682L923.573 690.707V690.737C922.718 701.959 916.395 708.069 906.684 710.289C896.981 712.509 883.82 710.298 870.679 703.419C870.675 703.419 870.671 703.415 870.666 703.415C856.125 695.706 838.829 696.474 827.731 694.153C822.183 692.995 818.561 691.249 816.9 688.009C815.24 684.765 815.202 679.112 818.733 669.472L818.749 669.43L818.762 669.388C820.51 663.995 819.215 658.094 818.368 652.554C817.521 647.019 817.106 641.979 818.997 638.47L819.013 638.437C821.433 633.77 824.98 632.1 829.383 630.522C833.789 628.939 839.01 627.698 843.131 623.559L843.157 623.538L843.177 623.517C846.989 619.493 849.853 614.444 853.203 610.864C856.029 607.842 858.859 605.84 863.123 605.811C863.174 605.816 863.22 605.816 863.27 605.811C864.016 605.816 864.809 605.878 865.648 606.009C871.308 606.865 876.243 610.826 880.998 617.281L894.726 642.323L894.73 642.335L894.738 642.344C898.39 649.978 906.105 658.375 912.642 666.941C919.179 675.503 924.236 684.102 923.577 690.682Z" fill="white" fill-opacity="0.6"/>
<path d="M992.04 457.234C990.937 455.073 988.686 453.017 984.853 451.443L984.845 451.439L984.832 451.434C976.861 448.018 973.402 447.775 968.954 444.879C961.712 440.221 955.729 438.588 950.756 438.609C948.152 438.618 945.825 439.079 943.741 439.801C937.682 441.887 933.661 446.239 931.141 448.627L931.137 448.631C931.137 448.635 931.133 448.635 931.133 448.639C930.638 449.109 930.001 449.538 928.458 450.671C926.902 451.808 924.571 453.52 921.217 456.038C918.236 458.275 917.267 461.188 918.298 464.6C919.326 468.012 922.613 471.948 928.626 475.352L928.634 475.36L928.647 475.364C932.378 477.559 934.928 480.518 937.854 482.872C939.318 484.047 940.857 485.097 942.71 485.89C944.563 486.683 946.727 487.22 949.435 487.38C955.792 487.749 960.471 485.839 964.601 483.472C968.74 481.11 972.245 478.218 976.266 476.913L976.274 476.909L976.283 476.904C984.526 474.328 990.405 469.136 992.245 464.205C993.168 461.737 993.138 459.396 992.04 457.234Z" fill="white" fill-opacity="0.6"/>
<path d="M971.126 469.413C964.567 472.835 956.907 476.984 948.756 476.984C940.609 476.984 934.173 473.216 929.544 469.543C927.229 467.709 925.351 465.884 923.934 464.558C921.475 462.615 921.769 459.89 922.78 459.971C924.473 460.182 924.729 462.414 925.795 463.412C927.238 464.763 929.045 466.513 931.234 468.251C935.611 471.722 941.448 475.1 948.756 475.1C956.052 475.1 964.568 470.813 969.767 467.894C972.712 466.24 976.46 463.276 979.518 461.029C981.858 459.31 981.773 457.24 983.705 457.465C985.637 457.691 984.208 459.757 981.502 462.12C978.796 464.484 974.564 467.62 971.126 469.413Z" fill="#1E1E1E" fill-opacity="0.5"/>
<path d="M1071.55 609.484C1070.64 609.45 1069.74 609.455 1068.87 609.475C1068.79 609.48 1068.71 609.48 1068.62 609.48C1070.88 602.362 1065.89 597.112 1052.62 591.102C1038.85 585.042 1027.89 585.642 1026.03 597.938C1025.91 598.581 1025.82 599.239 1025.75 599.903C1024.72 600.263 1023.68 600.717 1022.64 601.283C1016.18 604.825 1012.65 611.246 1010.69 619.128C1008.73 627.001 1008.17 636.515 1007.63 647.213C1007.63 647.217 1007.63 647.217 1007.63 647.221C1007.3 652.598 1005.08 659.874 1002.85 667.58C980.295 683.682 948.999 690.657 922.424 672.502C920.626 669.653 918.558 666.828 916.433 664.042C915.074 662.263 913.678 660.496 912.294 658.75C915.02 658.754 917.338 658.305 919.213 657.457C921.544 656.396 923.179 654.7 923.992 652.517C925.611 648.157 923.984 642.005 918.797 634.975C913.611 627.95 904.826 620.022 891.921 612.099C891.921 612.099 891.921 612.099 891.921 612.094C882.436 606.19 877.136 598.954 874.654 591.098C872.168 583.238 872.516 574.739 874.432 566.35C878.105 550.247 887.539 534.585 893.56 524.756C895.178 523.564 894.139 526.972 887.463 539.378C881.484 550.718 870.302 576.888 885.61 597.318C886.021 582.78 889.489 567.953 895.313 554.083C903.795 534.841 921.535 501.464 922.944 474.865C923.674 475.394 926.169 477.081 927.28 477.715C927.284 477.719 927.284 477.719 927.288 477.719C930.542 479.637 932.986 482.44 936.152 484.988C939.326 487.539 943.288 489.743 949.276 490.091C949.85 490.125 950.412 490.141 950.962 490.141C957.134 490.141 961.947 488.127 965.956 485.831C970.312 483.339 973.792 480.577 977.092 479.503C977.097 479.499 977.101 479.499 977.105 479.499C984.078 477.316 989.617 473.455 992.77 468.956C998.187 490.326 1010.78 521.193 1018.88 536.255C1023.19 544.246 1031.75 561.226 1035.45 581.685C1037.79 581.613 1040.37 581.954 1043.14 582.662C1052.81 557.562 1034.93 530.53 1026.76 523.001C1023.46 519.795 1023.3 518.36 1024.94 518.427C1033.8 526.279 1045.45 542.063 1049.68 559.882C1051.61 568.007 1052.02 576.552 1049.95 584.983C1050.96 585.403 1051.99 585.86 1053.04 586.356C1068.57 593.922 1074.31 600.503 1071.55 609.484Z" fill="white" fill-opacity="0.6"/>
<path d="M992.77 432.616C992.803 436.851 992.073 440.456 990.468 444.136C989.553 446.235 988.502 447.997 987.239 449.525C986.811 449.319 986.367 449.122 985.906 448.933C984.308 448.249 982.895 447.687 981.629 447.208C980.363 446.73 979.374 446.403 978.355 446.051C979.093 445.157 980.548 444.103 981.089 442.781C981.911 440.788 982.314 438.841 982.389 436.52C982.389 436.427 982.418 436.348 982.418 436.239C982.465 434.014 982.171 432.113 981.521 430.166C980.842 428.122 979.978 426.653 978.729 425.432C977.475 424.211 976.225 423.657 974.724 423.606C974.653 423.602 974.586 423.602 974.515 423.602C973.106 423.606 971.882 424.093 970.615 425.151C969.286 426.263 968.3 427.686 967.479 429.666C966.661 431.647 966.259 433.611 966.179 435.945C966.167 436.037 966.167 436.117 966.167 436.209C966.137 437.493 966.221 438.668 966.418 439.81C963.533 438.37 959.843 437.321 957.293 436.712C957.147 435.609 957.063 434.471 957.038 433.279V432.956C956.991 428.734 957.683 425.113 959.306 421.436C960.929 417.756 962.937 415.112 965.763 412.959C968.593 410.81 971.373 409.824 974.664 409.79H974.819C978.04 409.79 980.794 410.739 983.625 412.791C986.497 414.881 988.568 417.491 990.237 421.142C991.872 424.701 992.661 428.18 992.741 432.306C992.74 432.415 992.74 432.507 992.77 432.616Z" fill="white" fill-opacity="0.6"/>
<path d="M944.098 436.834C943.674 436.956 943.263 437.086 942.857 437.224C940.55 438.022 938.719 438.902 936.95 440.073C937.122 438.847 937.147 437.605 937.013 436.216C937 436.14 937 436.077 937 436.002C936.816 434.159 936.426 432.615 935.776 431.054C935.084 429.43 934.308 428.284 933.29 427.403C932.367 426.605 931.495 426.236 930.531 426.244C930.434 426.244 930.334 426.249 930.233 426.257C929.151 426.349 928.254 426.878 927.403 427.915C926.556 428.947 925.998 430.231 925.596 431.935C925.193 433.635 925.088 435.305 925.256 437.223C925.256 437.299 925.273 437.362 925.273 437.437C925.457 439.296 925.83 440.841 926.493 442.402C927.172 444.009 927.96 445.155 928.979 446.036C929.151 446.183 929.319 446.317 929.487 446.435C928.43 447.253 927.72 447.834 926.848 448.472C926.29 448.879 925.628 449.366 924.856 449.936C923.175 448.358 921.862 446.377 920.714 443.763C919.355 440.674 918.63 437.581 918.412 433.93V433.901C918.21 430.249 918.567 427.11 919.569 423.862C920.575 420.614 921.917 418.263 923.867 416.333C925.812 414.398 927.775 413.425 930.139 413.303C930.324 413.295 930.504 413.29 930.684 413.29C932.827 413.295 934.739 414.008 936.718 415.59C938.865 417.307 940.488 419.502 941.846 422.594C943.209 425.687 943.934 428.78 944.135 432.432V432.461C944.232 433.993 944.219 435.437 944.098 436.834Z" fill="white" fill-opacity="0.6"/>
<path d="M954.855 445.567C955.127 446.439 956.53 446.294 957.34 446.712C958.052 447.079 958.624 447.883 959.423 447.906C960.187 447.928 961.375 447.641 961.474 446.883C961.605 445.882 960.144 445.246 959.205 444.879C957.995 444.407 956.445 444.168 955.311 444.799C955.051 444.944 954.767 445.283 954.855 445.567Z" fill="#1E1E1E" fill-opacity="0.5"/>
<path d="M946.568 445.567C946.297 446.439 944.894 446.294 944.083 446.712C943.372 447.079 942.8 447.883 942 447.906C941.237 447.928 940.049 447.641 939.95 446.883C939.819 445.882 941.279 445.246 942.219 444.879C943.429 444.407 944.978 444.168 946.113 444.799C946.373 444.944 946.657 445.283 946.568 445.567Z" fill="#1E1E1E" fill-opacity="0.5"/>
</g>
</g>
<defs>
<filter id="filter0_b_25_49" x="773" y="322" width="373.144" height="436" filterUnits="userSpaceOnUse" color-interpolation-filters="sRGB">
<feFlood flood-opacity="0" result="BackgroundImageFix"/>
<feGaussianBlur in="BackgroundImageFix" stdDeviation="19"/>
<feComposite in2="SourceAlpha" operator="in" result="effect1_backgroundBlur_25_49"/>
<feBlend mode="normal" in="SourceGraphic" in2="effect1_backgroundBlur_25_49" result="shape"/>
</filter>
<clipPath id="clip0_25_49">
<rect width="1920" height="1080" fill="white"/>
</clipPath>
</defs>
</svg>
